<svg width="16" height="16" viewBox="0 0 16 16" fill="none" xmlns="http://www.w3.org/2000/svg">
<path d="M8.85248 1.61342C8.66222 1.43354 8.41032 1.33331 8.14848 1.33331C7.88665 1.33331 7.63475 1.43354 7.44448 1.61342L2.48061 6.30471C2.32862 6.44854 2.2076 6.62188 2.12495 6.81412C2.04231 7.00637 1.99979 7.21346 2 7.42271V13.1306C2.00027 13.538 2.16234 13.9288 2.45058 14.2168C2.73881 14.5048 3.12963 14.6666 3.53712 14.6666H5.07424C5.48191 14.6666 5.87288 14.5047 6.16115 14.2164C6.44942 13.9282 6.61136 13.5372 6.61136 13.1295V10.5677C6.61136 10.4318 6.66534 10.3014 6.76143 10.2054C6.85752 10.1093 6.98785 10.0553 7.12374 10.0553H9.17323C9.30912 10.0553 9.43944 10.1093 9.53553 10.2054C9.63162 10.3014 9.6856 10.4318 9.6856 10.5677V13.1295C9.6856 13.5372 9.84755 13.9282 10.1358 14.2164C10.4241 14.5047 10.8151 14.6666 11.2227 14.6666H12.7598C13.1675 14.6666 13.5585 14.5047 13.8468 14.2164C14.135 13.9282 14.297 13.5372 14.297 13.1295V7.42169C14.2969 7.21253 14.2542 7.00559 14.1713 6.81353C14.0885 6.62147 13.9674 6.44833 13.8153 6.30471L8.85248 1.61137V1.61342Z" fill="#42A3CD"/>
</svg>
