<svg width="24" height="24" viewBox="0 0 24 24" fill="none" xmlns="http://www.w3.org/2000/svg">
<path fill-rule="evenodd" clip-rule="evenodd" d="M18.9466 6.51807C19.3511 6.1136 19.3511 5.45783 18.9466 5.05335C18.5422 4.64888 17.8864 4.64888 17.4819 5.05335L12 10.5353L6.51807 5.05335C6.1136 4.64888 5.45783 4.64888 5.05335 5.05335C4.64888 5.45783 4.64888 6.1136 5.05335 6.51807L10.5353 12L5.05335 17.4819C4.64888 17.8864 4.64888 18.5422 5.05335 18.9466C5.45783 19.3511 6.1136 19.3511 6.51807 18.9466L12 13.4647L17.4819 18.9466C17.8864 19.3511 18.5422 19.3511 18.9466 18.9466C19.3511 18.5422 19.3511 17.8864 18.9466 17.4819L13.4647 12L18.9466 6.51807Z" fill="white"/>
</svg>
